<svg xmlns="http://www.w3.org/2000/svg" width="334" height="400">
<rect x="0" y="0" width="334" height="400" fill="#374151"/>
<rect x="2" y="2" width="33" height="33" fill="#15803d" stroke="rgba(0,0,0,0.2)" stroke-width="1"/>
<rect x="35" y="2" width="33" height="33" fill="#6b7280" stroke="rgba(0,0,0,0.2)" stroke-width="1"/>
<rect x="39.95" y="6.95" width="23.10" height="23.10" fill="#4b5563" rx="2.3" ry="2.3"/>
<rect x="68" y="2" width="33" height="33" fill="#15803d" stroke="rgba(0,0,0,0.2)" stroke-width="1"/>
<rect x="101" y="2" width="33" height="33" fill="#15803d" stroke="rgba(0,0,0,0.2)" stroke-width="1"/>
<rect x="134" y="2" width="33" height="33" fill="#15803d" stroke="rgba(0,0,0,0.2)" stroke-width="1"/>
<rect x="167" y="2" width="33" height="33" fill="#15803d" stroke="rgba(0,0,0,0.2)" stroke-width="1"/>
<rect x="200" y="2" width="33" height="33" fill="#15803d" stroke="rgba(0,0,0,0.2)" stroke-width="1"/>
<rect x="233" y="2" width="33" height="33" fill="#15803d" stroke="rgba(0,0,0,0.2)" stroke-width="1"/>
<rect x="266" y="2" width="33" height="33" fill="#6b7280" stroke="rgba(0,0,0,0.2)" stroke-width="1"/>
<rect x="270.95" y="6.95" width="23.10" height="23.10" fill="#4b5563" rx="2.3" ry="2.3"/>
<rect x="299" y="2" width="33" height="33" fill="#15803d" stroke="rgba(0,0,0,0.2)" stroke-width="1"/>
<rect x="2" y="35" width="33" height="33" fill="#15803d" stroke="rgba(0,0,0,0.2)" stroke-width="1"/>
<rect x="35" y="35" width="33" height="33" fill="#15803d" stroke="rgba(0,0,0,0.2)" stroke-width="1"/>
<rect x="68" y="35" width="33" height="33" fill="#6b7280" stroke="rgba(0,0,0,0.2)" stroke-width="1"/>
<rect x="72.95" y="39.95" width="23.10" height="23.10" fill="#4b5563" rx="2.3" ry="2.3"/>
<rect x="101" y="35" width="33" height="33" fill="#15803d" stroke="rgba(0,0,0,0.2)" stroke-width="1"/>
<rect x="134" y="35" width="33" height="33" fill="#15803d" stroke="rgba(0,0,0,0.2)" stroke-width="1"/>
<rect x="167" y="35" width="33" height="33" fill="#15803d" stroke="rgba(0,0,0,0.2)" stroke-width="1"/>
<rect x="200" y="35" width="33" height="33" fill="#15803d" stroke="rgba(0,0,0,0.2)" stroke-width="1"/>
<rect x="233" y="35" width="33" height="33" fill="#6b7280" stroke="rgba(0,0,0,0.2)" stroke-width="1"/>
<rect x="237.95" y="39.95" width="23.10" height="23.10" fill="#4b5563" rx="2.3" ry="2.3"/>
<rect x="266" y="35" width="33" height="33" fill="#15803d" stroke="rgba(0,0,0,0.2)" stroke-width="1"/>
<rect x="299" y="35" width="33" height="33" fill="#15803d" stroke="rgba(0,0,0,0.2)" stroke-width="1"/>
<rect x="2" y="68" width="33" height="33" fill="#15803d" stroke="rgba(0,0,0,0.2)" stroke-width="1"/>
<rect x="35" y="68" width="33" height="33" fill="#15803d" stroke="rgba(0,0,0,0.2)" stroke-width="1"/>
<rect x="68" y="68" width="33" height="33" fill="#6b7280" stroke="rgba(0,0,0,0.2)" stroke-width="1"/>
<rect x="72.95" y="72.95" width="23.10" height="23.10" fill="#4b5563" rx="2.3" ry="2.3"/>
<rect x="101" y="68" width="33" height="33" fill="#6b7280" stroke="rgba(0,0,0,0.2)" stroke-width="1"/>
<rect x="105.95" y="72.95" width="23.10" height="23.10" fill="#4b5563" rx="2.3" ry="2.3"/>
<rect x="134" y="68" width="33" height="33" fill="#6b7280" stroke="rgba(0,0,0,0.2)" stroke-width="1"/>
<rect x="138.95" y="72.95" width="23.10" height="23.10" fill="#4b5563" rx="2.3" ry="2.3"/>
<rect x="167" y="68" width="33" height="33" fill="#6b7280" stroke="rgba(0,0,0,0.2)" stroke-width="1"/>
<rect x="171.95" y="72.95" width="23.10" height="23.10" fill="#4b5563" rx="2.3" ry="2.3"/>
<rect x="200" y="68" width="33" height="33" fill="#6b7280" stroke="rgba(0,0,0,0.2)" stroke-width="1"/>
<rect x="204.95" y="72.95" width="23.10" height="23.10" fill="#4b5563" rx="2.3" ry="2.3"/>
<rect x="233" y="68" width="33" height="33" fill="#6b7280" stroke="rgba(0,0,0,0.2)" stroke-width="1"/>
<rect x="237.95" y="72.95" width="23.10" height="23.10" fill="#4b5563" rx="2.3" ry="2.3"/>
<rect x="266" y="68" width="33" height="33" fill="#15803d" stroke="rgba(0,0,0,0.2)" stroke-width="1"/>
<rect x="299" y="68" width="33" height="33" fill="#15803d" stroke="rgba(0,0,0,0.2)" stroke-width="1"/>
<rect x="2" y="101" width="33" height="33" fill="#15803d" stroke="rgba(0,0,0,0.2)" stroke-width="1"/>
<rect x="35" y="101" width="33" height="33" fill="#15803d" stroke="rgba(0,0,0,0.2)" stroke-width="1"/>
<rect x="68" y="101" width="33" height="33" fill="#15803d" stroke="rgba(0,0,0,0.2)" stroke-width="1"/>
<rect x="101" y="101" width="33" height="33" fill="#15803d" stroke="rgba(0,0,0,0.2)" stroke-width="1"/>
<rect x="134" y="101" width="33" height="33" fill="#15803d" stroke="rgba(0,0,0,0.2)" stroke-width="1"/>
<rect x="167" y="101" width="33" height="33" fill="#15803d" stroke="rgba(0,0,0,0.2)" stroke-width="1"/>
<rect x="200" y="101" width="33" height="33" fill="#15803d" stroke="rgba(0,0,0,0.2)" stroke-width="1"/>
<rect x="233" y="101" width="33" height="33" fill="#15803d" stroke="rgba(0,0,0,0.2)" stroke-width="1"/>
<rect x="266" y="101" width="33" height="33" fill="#15803d" stroke="rgba(0,0,0,0.2)" stroke-width="1"/>
<rect x="299" y="101" width="33" height="33" fill="#15803d" stroke="rgba(0,0,0,0.2)" stroke-width="1"/>
<rect x="2" y="134" width="33" height="33" fill="#15803d" stroke="rgba(0,0,0,0.2)" stroke-width="1"/>
<rect x="35" y="134" width="33" height="33" fill="#15803d" stroke="rgba(0,0,0,0.2)" stroke-width="1"/>
<rect x="68" y="134" width="33" height="33" fill="#15803d" stroke="rgba(0,0,0,0.2)" stroke-width="1"/>
<rect x="101" y="134" width="33" height="33" fill="#15803d" stroke="rgba(0,0,0,0.2)" stroke-width="1"/>
<rect x="134" y="134" width="33" height="33" fill="#15803d" stroke="rgba(0,0,0,0.2)" stroke-width="1"/>
<rect x="167" y="134" width="33" height="33" fill="#15803d" stroke="rgba(0,0,0,0.2)" stroke-width="1"/>
<rect x="200" y="134" width="33" height="33" fill="#15803d" stroke="rgba(0,0,0,0.2)" stroke-width="1"/>
<rect x="233" y="134" width="33" height="33" fill="#15803d" stroke="rgba(0,0,0,0.2)" stroke-width="1"/>
<rect x="266" y="134" width="33" height="33" fill="#15803d" stroke="rgba(0,0,0,0.2)" stroke-width="1"/>
<rect x="299" y="134" width="33" height="33" fill="#15803d" stroke="rgba(0,0,0,0.2)" stroke-width="1"/>
<rect x="2" y="167" width="33" height="33" fill="#6b7280" stroke="rgba(0,0,0,0.2)" stroke-width="1"/>
<rect x="6.95" y="171.95" width="23.10" height="23.10" fill="#4b5563" rx="2.3" ry="2.3"/>
<rect x="35" y="167" width="33" height="33" fill="#15803d" stroke="rgba(0,0,0,0.2)" stroke-width="1"/>
<rect x="68" y="167" width="33" height="33" fill="#15803d" stroke="rgba(0,0,0,0.2)" stroke-width="1"/>
<rect x="101" y="167" width="33" height="33" fill="#15803d" stroke="rgba(0,0,0,0.2)" stroke-width="1"/>
<rect x="134" y="167" width="33" height="33" fill="#15803d" stroke="rgba(0,0,0,0.2)" stroke-width="1"/>
<circle cx="150.50" cy="183.50" r="12.87" fill="#030712"/>
<rect x="167" y="167" width="33" height="33" fill="#15803d" stroke="rgba(0,0,0,0.2)" stroke-width="1"/>
<circle cx="183.50" cy="183.50" r="12.87" fill="#ffffff" stroke="#e5e7eb" stroke-width="1"/>
<rect x="200" y="167" width="33" height="33" fill="#15803d" stroke="rgba(0,0,0,0.2)" stroke-width="1"/>
<rect x="233" y="167" width="33" height="33" fill="#15803d" stroke="rgba(0,0,0,0.2)" stroke-width="1"/>
<rect x="266" y="167" width="33" height="33" fill="#15803d" stroke="rgba(0,0,0,0.2)" stroke-width="1"/>
<rect x="299" y="167" width="33" height="33" fill="#6b7280" stroke="rgba(0,0,0,0.2)" stroke-width="1"/>
<rect x="303.95" y="171.95" width="23.10" height="23.10" fill="#4b5563" rx="2.3" ry="2.3"/>
<rect x="2" y="200" width="33" height="33" fill="#6b7280" stroke="rgba(0,0,0,0.2)" stroke-width="1"/>
<rect x="6.95" y="204.95" width="23.10" height="23.10" fill="#4b5563" rx="2.3" ry="2.3"/>
<rect x="35" y="200" width="33" height="33" fill="#15803d" stroke="rgba(0,0,0,0.2)" stroke-width="1"/>
<rect x="68" y="200" width="33" height="33" fill="#15803d" stroke="rgba(0,0,0,0.2)" stroke-width="1"/>
<rect x="101" y="200" width="33" height="33" fill="#15803d" stroke="rgba(0,0,0,0.2)" stroke-width="1"/>
<rect x="134" y="200" width="33" height="33" fill="#15803d" stroke="rgba(0,0,0,0.2)" stroke-width="1"/>
<circle cx="150.50" cy="216.50" r="12.87" fill="#ffffff" stroke="#e5e7eb" stroke-width="1"/>
<rect x="167" y="200" width="33" height="33" fill="#15803d" stroke="rgba(0,0,0,0.2)" stroke-width="1"/>
<circle cx="183.50" cy="216.50" r="12.87" fill="#030712"/>
<rect x="200" y="200" width="33" height="33" fill="#15803d" stroke="rgba(0,0,0,0.2)" stroke-width="1"/>
<rect x="233" y="200" width="33" height="33" fill="#15803d" stroke="rgba(0,0,0,0.2)" stroke-width="1"/>
<rect x="266" y="200" width="33" height="33" fill="#15803d" stroke="rgba(0,0,0,0.2)" stroke-width="1"/>
<rect x="299" y="200" width="33" height="33" fill="#6b7280" stroke="rgba(0,0,0,0.2)" stroke-width="1"/>
<rect x="303.95" y="204.95" width="23.10" height="23.10" fill="#4b5563" rx="2.3" ry="2.3"/>
<rect x="2" y="233" width="33" height="33" fill="#15803d" stroke="rgba(0,0,0,0.2)" stroke-width="1"/>
<rect x="35" y="233" width="33" height="33" fill="#15803d" stroke="rgba(0,0,0,0.2)" stroke-width="1"/>
<rect x="68" y="233" width="33" height="33" fill="#15803d" stroke="rgba(0,0,0,0.2)" stroke-width="1"/>
<rect x="101" y="233" width="33" height="33" fill="#15803d" stroke="rgba(0,0,0,0.2)" stroke-width="1"/>
<rect x="134" y="233" width="33" height="33" fill="#15803d" stroke="rgba(0,0,0,0.2)" stroke-width="1"/>
<rect x="167" y="233" width="33" height="33" fill="#15803d" stroke="rgba(0,0,0,0.2)" stroke-width="1"/>
<rect x="200" y="233" width="33" height="33" fill="#15803d" stroke="rgba(0,0,0,0.2)" stroke-width="1"/>
<rect x="233" y="233" width="33" height="33" fill="#15803d" stroke="rgba(0,0,0,0.2)" stroke-width="1"/>
<rect x="266" y="233" width="33" height="33" fill="#15803d" stroke="rgba(0,0,0,0.2)" stroke-width="1"/>
<rect x="299" y="233" width="33" height="33" fill="#15803d" stroke="rgba(0,0,0,0.2)" stroke-width="1"/>
<rect x="2" y="266" width="33" height="33" fill="#15803d" stroke="rgba(0,0,0,0.2)" stroke-width="1"/>
<rect x="35" y="266" width="33" height="33" fill="#15803d" stroke="rgba(0,0,0,0.2)" stroke-width="1"/>
<rect x="68" y="266" width="33" height="33" fill="#15803d" stroke="rgba(0,0,0,0.2)" stroke-width="1"/>
<rect x="101" y="266" width="33" height="33" fill="#15803d" stroke="rgba(0,0,0,0.2)" stroke-width="1"/>
<rect x="134" y="266" width="33" height="33" fill="#15803d" stroke="rgba(0,0,0,0.2)" stroke-width="1"/>
<rect x="167" y="266" width="33" height="33" fill="#15803d" stroke="rgba(0,0,0,0.2)" stroke-width="1"/>
<rect x="200" y="266" width="33" height="33" fill="#15803d" stroke="rgba(0,0,0,0.2)" stroke-width="1"/>
<rect x="233" y="266" width="33" height="33" fill="#15803d" stroke="rgba(0,0,0,0.2)" stroke-width="1"/>
<rect x="266" y="266" width="33" height="33" fill="#15803d" stroke="rgba(0,0,0,0.2)" stroke-width="1"/>
<rect x="299" y="266" width="33" height="33" fill="#15803d" stroke="rgba(0,0,0,0.2)" stroke-width="1"/>
<rect x="2" y="299" width="33" height="33" fill="#15803d" stroke="rgba(0,0,0,0.2)" stroke-width="1"/>
<rect x="35" y="299" width="33" height="33" fill="#15803d" stroke="rgba(0,0,0,0.2)" stroke-width="1"/>
<rect x="68" y="299" width="33" height="33" fill="#6b7280" stroke="rgba(0,0,0,0.2)" stroke-width="1"/>
<rect x="72.95" y="303.95" width="23.10" height="23.10" fill="#4b5563" rx="2.3" ry="2.3"/>
<rect x="101" y="299" width="33" height="33" fill="#6b7280" stroke="rgba(0,0,0,0.2)" stroke-width="1"/>
<rect x="105.95" y="303.95" width="23.10" height="23.10" fill="#4b5563" rx="2.3" ry="2.3"/>
<rect x="134" y="299" width="33" height="33" fill="#6b7280" stroke="rgba(0,0,0,0.2)" stroke-width="1"/>
<rect x="138.95" y="303.95" width="23.10" height="23.10" fill="#4b5563" rx="2.3" ry="2.3"/>
<rect x="167" y="299" width="33" height="33" fill="#6b7280" stroke="rgba(0,0,0,0.2)" stroke-width="1"/>
<rect x="171.95" y="303.95" width="23.10" height="23.10" fill="#4b5563" rx="2.3" ry="2.3"/>
<rect x="200" y="299" width="33" height="33" fill="#6b7280" stroke="rgba(0,0,0,0.2)" stroke-width="1"/>
<rect x="204.95" y="303.95" width="23.10" height="23.10" fill="#4b5563" rx="2.3" ry="2.3"/>
<rect x="233" y="299" width="33" height="33" fill="#6b7280" stroke="rgba(0,0,0,0.2)" stroke-width="1"/>
<rect x="237.95" y="303.95" width="23.10" height="23.10" fill="#4b5563" rx="2.3" ry="2.3"/>
<rect x="266" y="299" width="33" height="33" fill="#15803d" stroke="rgba(0,0,0,0.2)" stroke-width="1"/>
<rect x="299" y="299" width="33" height="33" fill="#15803d" stroke="rgba(0,0,0,0.2)" stroke-width="1"/>
<rect x="2" y="332" width="33" height="33" fill="#15803d" stroke="rgba(0,0,0,0.2)" stroke-width="1"/>
<rect x="35" y="332" width="33" height="33" fill="#15803d" stroke="rgba(0,0,0,0.2)" stroke-width="1"/>
<rect x="68" y="332" width="33" height="33" fill="#6b7280" stroke="rgba(0,0,0,0.2)" stroke-width="1"/>
<rect x="72.95" y="336.95" width="23.10" height="23.10" fill="#4b5563" rx="2.3" ry="2.3"/>
<rect x="101" y="332" width="33" height="33" fill="#15803d" stroke="rgba(0,0,0,0.2)" stroke-width="1"/>
<rect x="134" y="332" width="33" height="33" fill="#15803d" stroke="rgba(0,0,0,0.2)" stroke-width="1"/>
<rect x="167" y="332" width="33" height="33" fill="#15803d" stroke="rgba(0,0,0,0.2)" stroke-width="1"/>
<rect x="200" y="332" width="33" height="33" fill="#15803d" stroke="rgba(0,0,0,0.2)" stroke-width="1"/>
<rect x="233" y="332" width="33" height="33" fill="#6b7280" stroke="rgba(0,0,0,0.2)" stroke-width="1"/>
<rect x="237.95" y="336.95" width="23.10" height="23.10" fill="#4b5563" rx="2.3" ry="2.3"/>
<rect x="266" y="332" width="33" height="33" fill="#15803d" stroke="rgba(0,0,0,0.2)" stroke-width="1"/>
<rect x="299" y="332" width="33" height="33" fill="#15803d" stroke="rgba(0,0,0,0.2)" stroke-width="1"/>
<rect x="2" y="365" width="33" height="33" fill="#15803d" stroke="rgba(0,0,0,0.2)" stroke-width="1"/>
<rect x="35" y="365" width="33" height="33" fill="#6b7280" stroke="rgba(0,0,0,0.2)" stroke-width="1"/>
<rect x="39.95" y="369.95" width="23.10" height="23.10" fill="#4b5563" rx="2.3" ry="2.3"/>
<rect x="68" y="365" width="33" height="33" fill="#15803d" stroke="rgba(0,0,0,0.2)" stroke-width="1"/>
<rect x="101" y="365" width="33" height="33" fill="#15803d" stroke="rgba(0,0,0,0.2)" stroke-width="1"/>
<rect x="134" y="365" width="33" height="33" fill="#15803d" stroke="rgba(0,0,0,0.2)" stroke-width="1"/>
<rect x="167" y="365" width="33" height="33" fill="#15803d" stroke="rgba(0,0,0,0.2)" stroke-width="1"/>
<rect x="200" y="365" width="33" height="33" fill="#15803d" stroke="rgba(0,0,0,0.2)" stroke-width="1"/>
<rect x="233" y="365" width="33" height="33" fill="#15803d" stroke="rgba(0,0,0,0.2)" stroke-width="1"/>
<rect x="266" y="365" width="33" height="33" fill="#6b7280" stroke="rgba(0,0,0,0.2)" stroke-width="1"/>
<rect x="270.95" y="369.95" width="23.10" height="23.10" fill="#4b5563" rx="2.3" ry="2.3"/>
<rect x="299" y="365" width="33" height="33" fill="#15803d" stroke="rgba(0,0,0,0.2)" stroke-width="1"/>
</svg>