<svg xmlns="http://www.w3.org/2000/svg" width="404" height="404">
<rect x="0" y="0" width="404" height="404" fill="#374151"/>
<rect x="2" y="2" width="50" height="50" fill="#6b7280" stroke="rgba(0,0,0,0.2)" stroke-width="1"/>
<rect x="9.50" y="9.50" width="35.00" height="35.00" fill="#4b5563" rx="3.5" ry="3.5"/>
<rect x="52" y="2" width="50" height="50" fill="#15803d" stroke="rgba(0,0,0,0.2)" stroke-width="1"/>
<rect x="102" y="2" width="50" height="50" fill="#15803d" stroke="rgba(0,0,0,0.2)" stroke-width="1"/>
<rect x="152" y="2" width="50" height="50" fill="#15803d" stroke="rgba(0,0,0,0.2)" stroke-width="1"/>
<rect x="202" y="2" width="50" height="50" fill="#15803d" stroke="rgba(0,0,0,0.2)" stroke-width="1"/>
<rect x="252" y="2" width="50" height="50" fill="#15803d" stroke="rgba(0,0,0,0.2)" stroke-width="1"/>
<rect x="302" y="2" width="50" height="50" fill="#15803d" stroke="rgba(0,0,0,0.2)" stroke-width="1"/>
<rect x="352" y="2" width="50" height="50" fill="#6b7280" stroke="rgba(0,0,0,0.2)" stroke-width="1"/>
<rect x="359.50" y="9.50" width="35.00" height="35.00" fill="#4b5563" rx="3.5" ry="3.5"/>
<rect x="2" y="52" width="50" height="50" fill="#15803d" stroke="rgba(0,0,0,0.2)" stroke-width="1"/>
<rect x="52" y="52" width="50" height="50" fill="#15803d" stroke="rgba(0,0,0,0.2)" stroke-width="1"/>
<rect x="102" y="52" width="50" height="50" fill="#15803d" stroke="rgba(0,0,0,0.2)" stroke-width="1"/>
<rect x="152" y="52" width="50" height="50" fill="#15803d" stroke="rgba(0,0,0,0.2)" stroke-width="1"/>
<rect x="202" y="52" width="50" height="50" fill="#15803d" stroke="rgba(0,0,0,0.2)" stroke-width="1"/>
<rect x="252" y="52" width="50" height="50" fill="#15803d" stroke="rgba(0,0,0,0.2)" stroke-width="1"/>
<rect x="302" y="52" width="50" height="50" fill="#15803d" stroke="rgba(0,0,0,0.2)" stroke-width="1"/>
<rect x="352" y="52" width="50" height="50" fill="#15803d" stroke="rgba(0,0,0,0.2)" stroke-width="1"/>
<rect x="2" y="102" width="50" height="50" fill="#15803d" stroke="rgba(0,0,0,0.2)" stroke-width="1"/>
<rect x="52" y="102" width="50" height="50" fill="#15803d" stroke="rgba(0,0,0,0.2)" stroke-width="1"/>
<rect x="102" y="102" width="50" height="50" fill="#15803d" stroke="rgba(0,0,0,0.2)" stroke-width="1"/>
<rect x="152" y="102" width="50" height="50" fill="#15803d" stroke="rgba(0,0,0,0.2)" stroke-width="1"/>
<rect x="202" y="102" width="50" height="50" fill="#15803d" stroke="rgba(0,0,0,0.2)" stroke-width="1"/>
<rect x="252" y="102" width="50" height="50" fill="#15803d" stroke="rgba(0,0,0,0.2)" stroke-width="1"/>
<rect x="302" y="102" width="50" height="50" fill="#15803d" stroke="rgba(0,0,0,0.2)" stroke-width="1"/>
<rect x="352" y="102" width="50" height="50" fill="#15803d" stroke="rgba(0,0,0,0.2)" stroke-width="1"/>
<rect x="2" y="152" width="50" height="50" fill="#15803d" stroke="rgba(0,0,0,0.2)" stroke-width="1"/>
<rect x="52" y="152" width="50" height="50" fill="#15803d" stroke="rgba(0,0,0,0.2)" stroke-width="1"/>
<rect x="102" y="152" width="50" height="50" fill="#15803d" stroke="rgba(0,0,0,0.2)" stroke-width="1"/>
<rect x="152" y="152" width="50" height="50" fill="#15803d" stroke="rgba(0,0,0,0.2)" stroke-width="1"/>
<circle cx="177.00" cy="177.00" r="19.50" fill="#030712"/>
<rect x="202" y="152" width="50" height="50" fill="#15803d" stroke="rgba(0,0,0,0.2)" stroke-width="1"/>
<circle cx="227.00" cy="177.00" r="19.50" fill="#ffffff" stroke="#e5e7eb" stroke-width="1"/>
<rect x="252" y="152" width="50" height="50" fill="#15803d" stroke="rgba(0,0,0,0.2)" stroke-width="1"/>
<rect x="302" y="152" width="50" height="50" fill="#15803d" stroke="rgba(0,0,0,0.2)" stroke-width="1"/>
<rect x="352" y="152" width="50" height="50" fill="#15803d" stroke="rgba(0,0,0,0.2)" stroke-width="1"/>
<rect x="2" y="202" width="50" height="50" fill="#15803d" stroke="rgba(0,0,0,0.2)" stroke-width="1"/>
<rect x="52" y="202" width="50" height="50" fill="#15803d" stroke="rgba(0,0,0,0.2)" stroke-width="1"/>
<rect x="102" y="202" width="50" height="50" fill="#15803d" stroke="rgba(0,0,0,0.2)" stroke-width="1"/>
<rect x="152" y="202" width="50" height="50" fill="#15803d" stroke="rgba(0,0,0,0.2)" stroke-width="1"/>
<circle cx="177.00" cy="227.00" r="19.50" fill="#ffffff" stroke="#e5e7eb" stroke-width="1"/>
<rect x="202" y="202" width="50" height="50" fill="#15803d" stroke="rgba(0,0,0,0.2)" stroke-width="1"/>
<circle cx="227.00" cy="227.00" r="19.50" fill="#030712"/>
<rect x="252" y="202" width="50" height="50" fill="#15803d" stroke="rgba(0,0,0,0.2)" stroke-width="1"/>
<rect x="302" y="202" width="50" height="50" fill="#15803d" stroke="rgba(0,0,0,0.2)" stroke-width="1"/>
<rect x="352" y="202" width="50" height="50" fill="#15803d" stroke="rgba(0,0,0,0.2)" stroke-width="1"/>
<rect x="2" y="252" width="50" height="50" fill="#15803d" stroke="rgba(0,0,0,0.2)" stroke-width="1"/>
<rect x="52" y="252" width="50" height="50" fill="#15803d" stroke="rgba(0,0,0,0.2)" stroke-width="1"/>
<rect x="102" y="252" width="50" height="50" fill="#15803d" stroke="rgba(0,0,0,0.2)" stroke-width="1"/>
<rect x="152" y="252" width="50" height="50" fill="#15803d" stroke="rgba(0,0,0,0.2)" stroke-width="1"/>
<rect x="202" y="252" width="50" height="50" fill="#15803d" stroke="rgba(0,0,0,0.2)" stroke-width="1"/>
<rect x="252" y="252" width="50" height="50" fill="#15803d" stroke="rgba(0,0,0,0.2)" stroke-width="1"/>
<rect x="302" y="252" width="50" height="50" fill="#15803d" stroke="rgba(0,0,0,0.2)" stroke-width="1"/>
<rect x="352" y="252" width="50" height="50" fill="#15803d" stroke="rgba(0,0,0,0.2)" stroke-width="1"/>
<rect x="2" y="302" width="50" height="50" fill="#15803d" stroke="rgba(0,0,0,0.2)" stroke-width="1"/>
<rect x="52" y="302" width="50" height="50" fill="#15803d" stroke="rgba(0,0,0,0.2)" stroke-width="1"/>
<rect x="102" y="302" width="50" height="50" fill="#15803d" stroke="rgba(0,0,0,0.2)" stroke-width="1"/>
<rect x="152" y="302" width="50" height="50" fill="#15803d" stroke="rgba(0,0,0,0.2)" stroke-width="1"/>
<rect x="202" y="302" width="50" height="50" fill="#15803d" stroke="rgba(0,0,0,0.2)" stroke-width="1"/>
<rect x="252" y="302" width="50" height="50" fill="#15803d" stroke="rgba(0,0,0,0.2)" stroke-width="1"/>
<rect x="302" y="302" width="50" height="50" fill="#15803d" stroke="rgba(0,0,0,0.2)" stroke-width="1"/>
<rect x="352" y="302" width="50" height="50" fill="#15803d" stroke="rgba(0,0,0,0.2)" stroke-width="1"/>
<rect x="2" y="352" width="50" height="50" fill="#6b7280" stroke="rgba(0,0,0,0.2)" stroke-width="1"/>
<rect x="9.50" y="359.50" width="35.00" height="35.00" fill="#4b5563" rx="3.5" ry="3.5"/>
<rect x="52" y="352" width="50" height="50" fill="#15803d" stroke="rgba(0,0,0,0.2)" stroke-width="1"/>
<rect x="102" y="352" width="50" height="50" fill="#15803d" stroke="rgba(0,0,0,0.2)" stroke-width="1"/>
<rect x="152" y="352" width="50" height="50" fill="#15803d" stroke="rgba(0,0,0,0.2)" stroke-width="1"/>
<rect x="202" y="352" width="50" height="50" fill="#15803d" stroke="rgba(0,0,0,0.2)" stroke-width="1"/>
<rect x="252" y="352" width="50" height="50" fill="#15803d" stroke="rgba(0,0,0,0.2)" stroke-width="1"/>
<rect x="302" y="352" width="50" height="50" fill="#15803d" stroke="rgba(0,0,0,0.2)" stroke-width="1"/>
<rect x="352" y="352" width="50" height="50" fill="#6b7280" stroke="rgba(0,0,0,0.2)" stroke-width="1"/>
<rect x="359.50" y="359.50" width="35.00" height="35.00" fill="#4b5563" rx="3.5" ry="3.5"/>
</svg>