<svg xmlns="http://www.w3.org/2000/svg" width="404" height="404">
<rect x="0" y="0" width="404" height="404" fill="#374151"/>
<rect x="2" y="2" width="40" height="40" fill="#6b7280" stroke="rgba(0,0,0,0.2)" stroke-width="1"/>
<rect x="8.00" y="8.00" width="28.00" height="28.00" fill="#4b5563" rx="2.8" ry="2.8"/>
<rect x="42" y="2" width="40" height="40" fill="#15803d" stroke="rgba(0,0,0,0.2)" stroke-width="1"/>
<rect x="82" y="2" width="40" height="40" fill="#6b7280" stroke="rgba(0,0,0,0.2)" stroke-width="1"/>
<rect x="88.00" y="8.00" width="28.00" height="28.00" fill="#4b5563" rx="2.8" ry="2.8"/>
<rect x="122" y="2" width="40" height="40" fill="#15803d" stroke="rgba(0,0,0,0.2)" stroke-width="1"/>
<rect x="162" y="2" width="40" height="40" fill="#15803d" stroke="rgba(0,0,0,0.2)" stroke-width="1"/>
<rect x="202" y="2" width="40" height="40" fill="#15803d" stroke="rgba(0,0,0,0.2)" stroke-width="1"/>
<rect x="242" y="2" width="40" height="40" fill="#15803d" stroke="rgba(0,0,0,0.2)" stroke-width="1"/>
<rect x="282" y="2" width="40" height="40" fill="#6b7280" stroke="rgba(0,0,0,0.2)" stroke-width="1"/>
<rect x="288.00" y="8.00" width="28.00" height="28.00" fill="#4b5563" rx="2.8" ry="2.8"/>
<rect x="322" y="2" width="40" height="40" fill="#15803d" stroke="rgba(0,0,0,0.2)" stroke-width="1"/>
<rect x="362" y="2" width="40" height="40" fill="#6b7280" stroke="rgba(0,0,0,0.2)" stroke-width="1"/>
<rect x="368.00" y="8.00" width="28.00" height="28.00" fill="#4b5563" rx="2.8" ry="2.8"/>
<rect x="2" y="42" width="40" height="40" fill="#15803d" stroke="rgba(0,0,0,0.2)" stroke-width="1"/>
<rect x="42" y="42" width="40" height="40" fill="#15803d" stroke="rgba(0,0,0,0.2)" stroke-width="1"/>
<rect x="82" y="42" width="40" height="40" fill="#15803d" stroke="rgba(0,0,0,0.2)" stroke-width="1"/>
<rect x="122" y="42" width="40" height="40" fill="#15803d" stroke="rgba(0,0,0,0.2)" stroke-width="1"/>
<rect x="162" y="42" width="40" height="40" fill="#15803d" stroke="rgba(0,0,0,0.2)" stroke-width="1"/>
<rect x="202" y="42" width="40" height="40" fill="#15803d" stroke="rgba(0,0,0,0.2)" stroke-width="1"/>
<rect x="242" y="42" width="40" height="40" fill="#15803d" stroke="rgba(0,0,0,0.2)" stroke-width="1"/>
<rect x="282" y="42" width="40" height="40" fill="#15803d" stroke="rgba(0,0,0,0.2)" stroke-width="1"/>
<rect x="322" y="42" width="40" height="40" fill="#15803d" stroke="rgba(0,0,0,0.2)" stroke-width="1"/>
<rect x="362" y="42" width="40" height="40" fill="#15803d" stroke="rgba(0,0,0,0.2)" stroke-width="1"/>
<rect x="2" y="82" width="40" height="40" fill="#15803d" stroke="rgba(0,0,0,0.2)" stroke-width="1"/>
<rect x="42" y="82" width="40" height="40" fill="#6b7280" stroke="rgba(0,0,0,0.2)" stroke-width="1"/>
<rect x="48.00" y="88.00" width="28.00" height="28.00" fill="#4b5563" rx="2.8" ry="2.8"/>
<rect x="82" y="82" width="40" height="40" fill="#15803d" stroke="rgba(0,0,0,0.2)" stroke-width="1"/>
<rect x="122" y="82" width="40" height="40" fill="#6b7280" stroke="rgba(0,0,0,0.2)" stroke-width="1"/>
<rect x="128.00" y="88.00" width="28.00" height="28.00" fill="#4b5563" rx="2.8" ry="2.8"/>
<rect x="162" y="82" width="40" height="40" fill="#15803d" stroke="rgba(0,0,0,0.2)" stroke-width="1"/>
<rect x="202" y="82" width="40" height="40" fill="#15803d" stroke="rgba(0,0,0,0.2)" stroke-width="1"/>
<rect x="242" y="82" width="40" height="40" fill="#6b7280" stroke="rgba(0,0,0,0.2)" stroke-width="1"/>
<rect x="248.00" y="88.00" width="28.00" height="28.00" fill="#4b5563" rx="2.8" ry="2.8"/>
<rect x="282" y="82" width="40" height="40" fill="#15803d" stroke="rgba(0,0,0,0.2)" stroke-width="1"/>
<rect x="322" y="82" width="40" height="40" fill="#6b7280" stroke="rgba(0,0,0,0.2)" stroke-width="1"/>
<rect x="328.00" y="88.00" width="28.00" height="28.00" fill="#4b5563" rx="2.8" ry="2.8"/>
<rect x="362" y="82" width="40" height="40" fill="#15803d" stroke="rgba(0,0,0,0.2)" stroke-width="1"/>
<rect x="2" y="122" width="40" height="40" fill="#15803d" stroke="rgba(0,0,0,0.2)" stroke-width="1"/>
<rect x="42" y="122" width="40" height="40" fill="#15803d" stroke="rgba(0,0,0,0.2)" stroke-width="1"/>
<rect x="82" y="122" width="40" height="40" fill="#15803d" stroke="rgba(0,0,0,0.2)" stroke-width="1"/>
<rect x="122" y="122" width="40" height="40" fill="#15803d" stroke="rgba(0,0,0,0.2)" stroke-width="1"/>
<rect x="162" y="122" width="40" height="40" fill="#15803d" stroke="rgba(0,0,0,0.2)" stroke-width="1"/>
<rect x="202" y="122" width="40" height="40" fill="#15803d" stroke="rgba(0,0,0,0.2)" stroke-width="1"/>
<rect x="242" y="122" width="40" height="40" fill="#15803d" stroke="rgba(0,0,0,0.2)" stroke-width="1"/>
<rect x="282" y="122" width="40" height="40" fill="#15803d" stroke="rgba(0,0,0,0.2)" stroke-width="1"/>
<rect x="322" y="122" width="40" height="40" fill="#15803d" stroke="rgba(0,0,0,0.2)" stroke-width="1"/>
<rect x="362" y="122" width="40" height="40" fill="#15803d" stroke="rgba(0,0,0,0.2)" stroke-width="1"/>
<rect x="2" y="162" width="40" height="40" fill="#6b7280" stroke="rgba(0,0,0,0.2)" stroke-width="1"/>
<rect x="8.00" y="168.00" width="28.00" height="28.00" fill="#4b5563" rx="2.8" ry="2.8"/>
<rect x="42" y="162" width="40" height="40" fill="#15803d" stroke="rgba(0,0,0,0.2)" stroke-width="1"/>
<rect x="82" y="162" width="40" height="40" fill="#15803d" stroke="rgba(0,0,0,0.2)" stroke-width="1"/>
<rect x="122" y="162" width="40" height="40" fill="#15803d" stroke="rgba(0,0,0,0.2)" stroke-width="1"/>
<rect x="162" y="162" width="40" height="40" fill="#15803d" stroke="rgba(0,0,0,0.2)" stroke-width="1"/>
<circle cx="182.00" cy="182.00" r="15.60" fill="#030712"/>
<rect x="202" y="162" width="40" height="40" fill="#15803d" stroke="rgba(0,0,0,0.2)" stroke-width="1"/>
<circle cx="222.00" cy="182.00" r="15.60" fill="#ffffff" stroke="#e5e7eb" stroke-width="1"/>
<rect x="242" y="162" width="40" height="40" fill="#15803d" stroke="rgba(0,0,0,0.2)" stroke-width="1"/>
<rect x="282" y="162" width="40" height="40" fill="#15803d" stroke="rgba(0,0,0,0.2)" stroke-width="1"/>
<rect x="322" y="162" width="40" height="40" fill="#15803d" stroke="rgba(0,0,0,0.2)" stroke-width="1"/>
<rect x="362" y="162" width="40" height="40" fill="#6b7280" stroke="rgba(0,0,0,0.2)" stroke-width="1"/>
<rect x="368.00" y="168.00" width="28.00" height="28.00" fill="#4b5563" rx="2.8" ry="2.8"/>
<rect x="2" y="202" width="40" height="40" fill="#6b7280" stroke="rgba(0,0,0,0.2)" stroke-width="1"/>
<rect x="8.00" y="208.00" width="28.00" height="28.00" fill="#4b5563" rx="2.8" ry="2.8"/>
<rect x="42" y="202" width="40" height="40" fill="#15803d" stroke="rgba(0,0,0,0.2)" stroke-width="1"/>
<rect x="82" y="202" width="40" height="40" fill="#15803d" stroke="rgba(0,0,0,0.2)" stroke-width="1"/>
<rect x="122" y="202" width="40" height="40" fill="#15803d" stroke="rgba(0,0,0,0.2)" stroke-width="1"/>
<rect x="162" y="202" width="40" height="40" fill="#15803d" stroke="rgba(0,0,0,0.2)" stroke-width="1"/>
<circle cx="182.00" cy="222.00" r="15.60" fill="#ffffff" stroke="#e5e7eb" stroke-width="1"/>
<rect x="202" y="202" width="40" height="40" fill="#15803d" stroke="rgba(0,0,0,0.2)" stroke-width="1"/>
<circle cx="222.00" cy="222.00" r="15.60" fill="#030712"/>
<rect x="242" y="202" width="40" height="40" fill="#15803d" stroke="rgba(0,0,0,0.2)" stroke-width="1"/>
<rect x="282" y="202" width="40" height="40" fill="#15803d" stroke="rgba(0,0,0,0.2)" stroke-width="1"/>
<rect x="322" y="202" width="40" height="40" fill="#15803d" stroke="rgba(0,0,0,0.2)" stroke-width="1"/>
<rect x="362" y="202" width="40" height="40" fill="#6b7280" stroke="rgba(0,0,0,0.2)" stroke-width="1"/>
<rect x="368.00" y="208.00" width="28.00" height="28.00" fill="#4b5563" rx="2.8" ry="2.8"/>
<rect x="2" y="242" width="40" height="40" fill="#15803d" stroke="rgba(0,0,0,0.2)" stroke-width="1"/>
<rect x="42" y="242" width="40" height="40" fill="#15803d" stroke="rgba(0,0,0,0.2)" stroke-width="1"/>
<rect x="82" y="242" width="40" height="40" fill="#15803d" stroke="rgba(0,0,0,0.2)" stroke-width="1"/>
<rect x="122" y="242" width="40" height="40" fill="#15803d" stroke="rgba(0,0,0,0.2)" stroke-width="1"/>
<rect x="162" y="242" width="40" height="40" fill="#15803d" stroke="rgba(0,0,0,0.2)" stroke-width="1"/>
<rect x="202" y="242" width="40" height="40" fill="#15803d" stroke="rgba(0,0,0,0.2)" stroke-width="1"/>
<rect x="242" y="242" width="40" height="40" fill="#15803d" stroke="rgba(0,0,0,0.2)" stroke-width="1"/>
<rect x="282" y="242" width="40" height="40" fill="#15803d" stroke="rgba(0,0,0,0.2)" stroke-width="1"/>
<rect x="322" y="242" width="40" height="40" fill="#15803d" stroke="rgba(0,0,0,0.2)" stroke-width="1"/>
<rect x="362" y="242" width="40" height="40" fill="#15803d" stroke="rgba(0,0,0,0.2)" stroke-width="1"/>
<rect x="2" y="282" width="40" height="40" fill="#15803d" stroke="rgba(0,0,0,0.2)" stroke-width="1"/>
<rect x="42" y="282" width="40" height="40" fill="#6b7280" stroke="rgba(0,0,0,0.2)" stroke-width="1"/>
<rect x="48.00" y="288.00" width="28.00" height="28.00" fill="#4b5563" rx="2.8" ry="2.8"/>
<rect x="82" y="282" width="40" height="40" fill="#15803d" stroke="rgba(0,0,0,0.2)" stroke-width="1"/>
<rect x="122" y="282" width="40" height="40" fill="#6b7280" stroke="rgba(0,0,0,0.2)" stroke-width="1"/>
<rect x="128.00" y="288.00" width="28.00" height="28.00" fill="#4b5563" rx="2.8" ry="2.8"/>
<rect x="162" y="282" width="40" height="40" fill="#15803d" stroke="rgba(0,0,0,0.2)" stroke-width="1"/>
<rect x="202" y="282" width="40" height="40" fill="#15803d" stroke="rgba(0,0,0,0.2)" stroke-width="1"/>
<rect x="242" y="282" width="40" height="40" fill="#6b7280" stroke="rgba(0,0,0,0.2)" stroke-width="1"/>
<rect x="248.00" y="288.00" width="28.00" height="28.00" fill="#4b5563" rx="2.8" ry="2.8"/>
<rect x="282" y="282" width="40" height="40" fill="#15803d" stroke="rgba(0,0,0,0.2)" stroke-width="1"/>
<rect x="322" y="282" width="40" height="40" fill="#6b7280" stroke="rgba(0,0,0,0.2)" stroke-width="1"/>
<rect x="328.00" y="288.00" width="28.00" height="28.00" fill="#4b5563" rx="2.8" ry="2.8"/>
<rect x="362" y="282" width="40" height="40" fill="#15803d" stroke="rgba(0,0,0,0.2)" stroke-width="1"/>
<rect x="2" y="322" width="40" height="40" fill="#15803d" stroke="rgba(0,0,0,0.2)" stroke-width="1"/>
<rect x="42" y="322" width="40" height="40" fill="#15803d" stroke="rgba(0,0,0,0.2)" stroke-width="1"/>
<rect x="82" y="322" width="40" height="40" fill="#15803d" stroke="rgba(0,0,0,0.2)" stroke-width="1"/>
<rect x="122" y="322" width="40" height="40" fill="#15803d" stroke="rgba(0,0,0,0.2)" stroke-width="1"/>
<rect x="162" y="322" width="40" height="40" fill="#15803d" stroke="rgba(0,0,0,0.2)" stroke-width="1"/>
<rect x="202" y="322" width="40" height="40" fill="#15803d" stroke="rgba(0,0,0,0.2)" stroke-width="1"/>
<rect x="242" y="322" width="40" height="40" fill="#15803d" stroke="rgba(0,0,0,0.2)" stroke-width="1"/>
<rect x="282" y="322" width="40" height="40" fill="#15803d" stroke="rgba(0,0,0,0.2)" stroke-width="1"/>
<rect x="322" y="322" width="40" height="40" fill="#15803d" stroke="rgba(0,0,0,0.2)" stroke-width="1"/>
<rect x="362" y="322" width="40" height="40" fill="#15803d" stroke="rgba(0,0,0,0.2)" stroke-width="1"/>
<rect x="2" y="362" width="40" height="40" fill="#6b7280" stroke="rgba(0,0,0,0.2)" stroke-width="1"/>
<rect x="8.00" y="368.00" width="28.00" height="28.00" fill="#4b5563" rx="2.8" ry="2.8"/>
<rect x="42" y="362" width="40" height="40" fill="#15803d" stroke="rgba(0,0,0,0.2)" stroke-width="1"/>
<rect x="82" y="362" width="40" height="40" fill="#6b7280" stroke="rgba(0,0,0,0.2)" stroke-width="1"/>
<rect x="88.00" y="368.00" width="28.00" height="28.00" fill="#4b5563" rx="2.8" ry="2.8"/>
<rect x="122" y="362" width="40" height="40" fill="#15803d" stroke="rgba(0,0,0,0.2)" stroke-width="1"/>
<rect x="162" y="362" width="40" height="40" fill="#15803d" stroke="rgba(0,0,0,0.2)" stroke-width="1"/>
<rect x="202" y="362" width="40" height="40" fill="#15803d" stroke="rgba(0,0,0,0.2)" stroke-width="1"/>
<rect x="242" y="362" width="40" height="40" fill="#15803d" stroke="rgba(0,0,0,0.2)" stroke-width="1"/>
<rect x="282" y="362" width="40" height="40" fill="#6b7280" stroke="rgba(0,0,0,0.2)" stroke-width="1"/>
<rect x="288.00" y="368.00" width="28.00" height="28.00" fill="#4b5563" rx="2.8" ry="2.8"/>
<rect x="322" y="362" width="40" height="40" fill="#15803d" stroke="rgba(0,0,0,0.2)" stroke-width="1"/>
<rect x="362" y="362" width="40" height="40" fill="#6b7280" stroke="rgba(0,0,0,0.2)" stroke-width="1"/>
<rect x="368.00" y="368.00" width="28.00" height="28.00" fill="#4b5563" rx="2.8" ry="2.8"/>
</svg>